<svg xmlns="http://www.w3.org/2000/svg" viewBox="-173.7 -137.3 386.3 327.3" width="386.3" height="327.3">
<g transform="matrix(1,0,0,1,0,0)">
  <defs>
    <linearGradient id="g1" gradientUnits="userSpaceOnUse" x1="-16384" y1="0" x2="16384" y2="0" spreadMethod="pad" gradientTransform="matrix(0.00735,-0.00094,0.00046,0.00363,33.85,125.5)"><stop offset="0.0549" stop-color="#03b902"/><stop offset="0.51765" stop-color="#01e401"/><stop offset="1" stop-color="#03b902"/></linearGradient>
    <linearGradient id="g2" gradientUnits="userSpaceOnUse" x1="-16384" y1="0" x2="16384" y2="0" spreadMethod="pad" gradientTransform="matrix(0.00096,-0.00056,0.00138,0.00238,163.95,23.5)"><stop offset="0.0549" stop-color="#03b902"/><stop offset="0.51765" stop-color="#01e401"/><stop offset="1" stop-color="#03b902"/></linearGradient>
    <linearGradient id="g3" gradientUnits="userSpaceOnUse" x1="-16384" y1="0" x2="16384" y2="0" spreadMethod="pad" gradientTransform="matrix(0.00237,0.00063,-0.00038,0.00142,-95.75,92.95)"><stop offset="0.0549" stop-color="#03b902"/><stop offset="0.51765" stop-color="#01e401"/><stop offset="1" stop-color="#03b902"/></linearGradient>
  </defs>
  <path d="M97.85 -107.65Q125.9 -107.55 148.7 -97.45Q155.65 -94.4 162.2 -90.35L167.1 -87.15Q190.9 -70.7 198.1 -47.85Q209.75 -29.6 212.1 -7.55L212.1 -7.5Q216.55 37.45 179.7 69.65L179.65 69.7Q171.7 76.5 162.95 81.85L163 83.5L163 83.6Q163 105.05 153.8 123.75Q144 143.3 124 159.3L123.3 159.95Q81.55 192.6 21.2 189.8L21.15 189.8L6.75 188.55L6.7 188.5Q-41.9 182.45 -77.35 152.65Q-96.35 136.7 -106.5 118.6L-106.55 118.55L-106.9 117.95L-106.9 117.9L-107.25 117.3Q-117.8 113.55 -127.3 107.7Q-135.2 102.85 -142.35 96.5Q-149.4 90.2 -154.65 83.55L-154.7 83.55Q-166.45 68.4 -170.05 50.65Q-173.7 40.8 -173.7 29.6Q-173.9 -2.8 -143.2 -27.7Q-135.15 -34.25 -126.2 -39.2L-124.35 -40.2Q-124.7 -43.5 -124.7 -46.95Q-124.7 -58.75 -120.9 -69.6Q-116.8 -81.55 -108.05 -92.4Q-102.75 -99 -95.7 -105.15L-92.3 -108Q-60.55 -134 -15.5 -136.95L-3.8 -137.3Q32.95 -137 60.2 -118.9L60.4 -118.8L60.5 -118.7L60.4 -118.8L61.6 -117.95L65 -115.55L67.95 -113.2L69 -112L70.45 -111.15L75.6 -106.3L86 -107.3L97.85 -107.65ZM109.25 -56.2L104.65 -50.85L107.65 -48.85L108.85 -51.2L108.95 -51.3L110.65 -54.7L109.25 -56.2ZM-106.2 98.8L-97.35 96.05L-102.1 91.3L-106.2 98.8Z" fill="#005500" fill-rule="evenodd"/>
  <path d="M-165.25 49.3Q-168.7 40.1 -168.7 29.6Q-168.7 -0.6 -140.05 -23.8Q-132.35 -30.1 -123.75 -34.85L-118.95 -37.35Q-119.7 -42.05 -119.7 -46.95Q-119.7 -57.9 -116.2 -67.95Q-112.3 -79.15 -104.15 -89.25Q-99.1 -95.55 -92.4 -101.4L-89.15 -104.1Q-58.55 -129.1 -15.2 -131.95L-3.85 -132.3Q31.35 -132 57.45 -114.75L57.65 -114.6L58.8 -113.85L62 -111.55L64.8 -109.35L64.8 -109Q65.95 -107.75 67.2 -107.35L73.7 -101L86.3 -102.3L97.85 -102.65Q124.75 -102.55 146.65 -92.9Q153.35 -89.95 159.55 -86.1L164.25 -83Q186.85 -67.4 193.55 -45.7Q196.3 -36.7 196.3 -26.6Q196.25 7.65 164.25 34.05Q156.2 40.65 147.25 45.85L147.05 49.5L146.9 50.7Q145.25 66.35 136.7 80.5Q127.1 96.4 108.8 110.35L108.75 110.35Q70.85 139.3 17.3 142.9Q-36.25 146.35 -74.2 122.4Q-92.5 110.85 -102.05 96.2L-102.2 96L-103.2 94.35L-104.15 94.15Q-123.95 90.2 -140.05 79.25Q-147 74.5 -152.3 69.15Q-161.15 60.1 -165.25 49.3ZM-19.6 -119.15Q9.65 -121.05 31.75 -109.55Q36.1 -107.3 40.15 -104.5Q51.35 -96.9 57.45 -87.35L57.65 -87.05L58.4 -85.8L66.65 -87.6Q74.05 -89 81.9 -89.5Q89.75 -90.05 97.15 -89.65Q112.65 -88.8 125.95 -83.9Q136.4 -80.05 145.55 -73.75Q171.9 -55.5 171.9 -27.3Q171.9 0.9 145.55 22.6Q135 31.3 122.7 36.9L122.9 42.15Q122.9 46.7 122.25 51.1Q119.75 67.85 107.65 82.45Q100.7 90.8 90.65 98.45Q58.45 123.05 12.9 126.05Q-32.65 129.05 -64.9 108.7Q-74.95 102.35 -81.85 94.9Q-88.7 87.55 -92.45 79.1L-102.2 77.65L-104.15 77.25Q-116.95 74.25 -127.7 67.55L-130.25 65.9Q-153.1 50.35 -153.1 26.3Q-153.1 2.2 -130.25 -16.3Q-118.45 -25.9 -104.15 -31.1L-100.75 -32.25Q-104.1 -40.65 -104.1 -50.25Q-104.1 -60.05 -100.65 -69Q-94.85 -84 -79.35 -96.65L-70.95 -102.8Q-48.85 -117.2 -19.6 -119.15ZM-17.05 -125.95Q-55.15 -123.45 -82.4 -102.05L-83.9 -100.8Q-97.25 -89.95 -104.15 -77.5Q-106.6 -73.1 -108.2 -68.5Q-111.55 -59.15 -111.55 -49Q-111.55 -41.9 -109.85 -35.35Q-123.4 -29.75 -134.8 -20.5Q-160.55 0.4 -160.55 27.5Q-160.55 51.75 -139.95 68.35L-134.8 72.15Q-121 81.5 -104.15 85.2L-102.2 85.6L-97.55 86.4Q-95.05 91.1 -91.55 95.55Q-83.15 106.3 -69.2 115.1Q-34.1 137.25 15.45 134.05Q65 130.75 100.05 104Q114.05 93.35 122.5 81.45Q132.95 66.8 134.95 50.25Q135.45 46.2 135.45 42.1L135.45 41L141.75 37.45Q148.8 33.2 155.25 27.9Q184.45 3.85 184.45 -27.4Q184.45 -58.65 155.25 -78.8Q150.2 -82.35 144.8 -85.15Q137.1 -89.1 128.75 -91.7Q108.7 -97.95 84.45 -96.35Q75.2 -95.75 66.6 -94.05L62.85 -98.5L57.45 -103.75L52 -108.1L49.85 -109.6L48.75 -110.35L48.3 -110.65Q21.05 -128.5 -17.05 -125.95ZM51.15 -88.35L50.65 -88.2L51.55 -88.45L51.15 -88.35ZM108.3 -52.45L107.65 -53.55L107.05 -53.5L107.6 -52.4Q108.05 -51.25 108.95 -51.2Q108.8 -51.9 108.3 -52.45ZM-113.9 47.1L-113.75 47.1Q-113.55 47 -113.95 46.4L-113.9 47.1Z" fill="#009900" fill-rule="evenodd"/>
  <path d="M31.75 -109.55Q9.65 -121.05 -19.6 -119.15Q-48.85 -117.2 -70.95 -102.8L-79.35 -96.65Q-94.85 -84 -100.65 -69Q-104.1 -60.05 -104.1 -50.25Q-104.1 -40.65 -100.75 -32.25L-104.15 -31.1Q-118.45 -25.9 -130.25 -16.3Q-153.1 2.2 -153.1 26.3Q-153.1 50.35 -130.25 65.9L-127.7 67.55Q-116.95 74.25 -104.15 77.25L-102.2 77.65L-92.45 79.1Q-88.7 87.55 -81.85 94.9Q-74.95 102.35 -64.9 108.7Q-32.65 129.05 12.9 126.05Q58.45 123.05 90.65 98.45Q100.7 90.8 107.65 82.45Q119.75 67.85 122.25 51.1Q122.9 46.7 122.9 42.15L122.7 36.9Q135 31.3 145.55 22.6Q171.9 0.9 171.9 -27.3Q171.9 -55.5 145.55 -73.75Q136.4 -80.05 125.95 -83.9Q112.65 -88.8 97.15 -89.65Q89.75 -90.05 81.9 -89.5Q74.05 -89 66.65 -87.6L58.4 -85.8L57.65 -87.05L57.45 -87.35Q51.35 -96.9 40.15 -104.5Q36.1 -107.3 31.75 -109.55ZM-82.4 -102.05Q-55.15 -123.45 -17.05 -125.95Q21.05 -128.5 48.3 -110.65L48.75 -110.35L49.85 -109.6L52 -108.1L57.45 -103.75L62.85 -98.5L66.6 -94.05Q75.2 -95.75 84.45 -96.35Q108.7 -97.95 128.75 -91.7Q137.1 -89.1 144.8 -85.15Q150.2 -82.35 155.25 -78.8Q184.45 -58.65 184.45 -27.4Q184.45 3.85 155.25 27.9Q148.8 33.2 141.75 37.45L135.45 41L135.45 42.1Q135.45 46.2 134.95 50.25Q132.95 66.8 122.5 81.45Q114.05 93.35 100.05 104Q65 130.75 15.45 134.05Q-34.1 137.25 -69.2 115.1Q-83.15 106.3 -91.55 95.55Q-95.05 91.1 -97.55 86.4L-102.2 85.6L-104.15 85.2Q-121 81.5 -134.8 72.15L-139.95 68.35Q-160.55 51.75 -160.55 27.5Q-160.55 0.4 -134.8 -20.5Q-123.4 -29.75 -109.85 -35.35Q-111.55 -41.9 -111.55 -49Q-111.55 -59.15 -108.2 -68.5Q-106.6 -73.1 -104.15 -77.5Q-97.25 -89.95 -83.9 -100.8L-82.4 -102.05ZM48.75 -110.35L47.8 -109.85L48.75 -110.35Z" fill="#00cc00" fill-rule="evenodd"/>
  <path d="M-113.75 47.1L-113.9 47.1L-113.95 46.4Q-113.55 47 -113.75 47.1Z" fill="#ffffff" fill-rule="evenodd"/>
  <path d="M157.95 79L157.85 79.1L158 83.6Q158.05 103.85 149.3 121.5Q139.8 140.45 120.2 155.9L120.2 156Q79.8 187.5 21.45 184.8L7.35 183.55Q-39.8 177.7 -74.15 148.8Q-92.4 133.5 -102.2 116.1L-102.2 96.2L-102.05 96.2Q-92.5 110.85 -74.2 122.4Q-36.25 146.35 17.3 142.9Q70.85 139.3 108.75 110.35L108.8 110.35Q127.1 96.4 136.7 80.5Q145.25 66.35 146.9 50.7L157.95 79Z" fill="url(#g1)" fill-rule="evenodd"/>
  <path d="M193.55 -45.7Q204.85 -28.25 207.1 -7Q211.25 35.45 176.4 65.9Q167.7 73.35 157.95 79L146.9 50.7L147.05 49.5L147.25 45.85Q156.2 40.65 164.25 34.05Q196.25 7.65 196.3 -26.6Q196.3 -36.7 193.55 -45.7Z" fill="url(#g2)" fill-rule="evenodd"/>
  <path d="M-102.2 116.1L-102.5 115.5L-103.75 113.2Q-114.85 109.5 -124.7 103.45Q-132.2 98.8 -139.05 92.75Q-145.75 86.8 -150.75 80.45Q-161.85 66.15 -165.25 49.3Q-161.15 60.1 -152.3 69.15Q-147 74.5 -140.05 79.25Q-123.95 90.2 -104.15 94.15L-103.2 94.35L-102.2 96L-102.2 96.2L-102.2 116.1Z" fill="url(#g3)" fill-rule="evenodd"/>
  <path d="M63.15 -99.4Q62.75 -101.35 63.25 -103L63.3 -103.35Q63.5 -106.5 65.55 -108.3Q67.3 -106.85 69.15 -107.3L69.15 -107.7L69.15 -108.55L69.35 -108.95L69.5 -109.6L69.4 -110.25L69.4 -110.35Q72.25 -111.25 75.5 -109.8Q79.15 -108.3 82.15 -103.1L86.85 -94.5L121.05 -109.7Q125.75 -112.1 131.2 -109.45Q136 -107.6 139.75 -102.35Q142.25 -98.1 142.5 -94.65L142.4 -92.45L145.15 -71.05Q148.75 -72 152.65 -70.5L154.45 -69.75Q159.6 -67.3 163.9 -61.4L165.05 -59.6Q169.25 -52.35 170.9 -45.3Q171.8 -41.2 171.85 -37.2L171.8 -37.2Q170.75 -29.05 170.4 -20.4Q169.85 -4.4 162.1 9.65L161.4 10.2Q160.1 11.55 159.7 13.45L159.05 13.95Q158.2 14.7 158.3 15.8L158.45 16.4L155.85 18.9L154.9 19.55Q152.9 20.85 152.5 22.35Q141.75 30.45 127.7 33.65L127.2 33.45Q121 30.8 115 26.7Q106.65 20.15 100.65 12.8L99.6 11.5L97.9 31.9Q98.05 33.85 97.8 35.85L97.5 36.3Q96 38.55 92.5 39.4Q87.45 38.85 84.05 36.25Q79.15 31.9 77.55 27.75L65.8 2L63.5 21.25Q63.6 25.3 62.8 29.05L62.5 29.9Q59.1 39.15 49.95 40.2Q39.45 39.75 29.6 31.3Q25.25 27.25 21.8 22.85Q16.8 16.15 13.7 8.6L-0.7 -24L-1.6 -26.15L-2.2 -28.15Q-2.65 -30.15 -2.2 -31.55L-2.05 -33.2L-2.25 -33.25L-1.6 -35.35L-2.1 -34.6Q-2.75 -33.5 -2.85 -31.95L-3 -30.6Q-3.1 -29.4 -2.8 -28L-1.9 -25.2L-1.5 -24.3L11.95 5.25Q13.4 8.75 13.2 11.9L12.25 13.5L12 13.8L7 38.45L6.85 38.4Q5.85 40.5 4.15 41.3Q1.05 40.55 -0.85 38.8Q-4.1 35.5 -5.1 32.45L-18.05 2.1L-18.25 1.55L-20.2 7.9L-19.8 10.2Q-20.65 12.1 -22.25 13.1L-22.8 13.2Q-21.85 15.7 -21.75 18.2L-22.45 19.8L-22.7 20.15L-27.95 39L-27.9 39.65L-28.3 40.35L-30.15 41.75Q-32.4 41.5 -33.8 39.9Q-36.4 36.6 -37.35 33.9L-38.95 30.15L-42 39.05L-41.85 39.85Q-42.25 41.25 -42.95 41.9L-43.4 42.2L-48.1 42.45Q-54.15 41.9 -60.3 34.65L-61.35 33.45Q-63.85 30.3 -65.95 26.85L-66 26.75Q-67.3 28.4 -69.1 28.8L-70.1 28.6Q-69.6 31.7 -69.4 34.45L-69.4 35.05L-69.45 36.35L-70.25 39.45L-69.2 42.15Q-68.2 45 -68.2 46.9L-68.35 47.8L-68.4 47.9L-72.1 60.1L-72.1 60.25L-72.35 60.9Q-72.85 61.75 -73.35 61.9Q-74.95 61.15 -75.9 59.85Q-77.6 57.55 -78.2 55.5L-88.05 30.95L-88.05 31L-88.1 31.15L-90.55 39.2L-90.85 40.5Q-91.9 42.95 -93.75 43.2Q-96.95 42.75 -100.55 38.5L-101.7 37L-102.3 36.2L-104.15 41.45L-104.15 41.5L-104.05 41.75L-104.15 41.9L-104.55 42.7L-105.05 43.25Q-106.1 42.75 -106.75 41.75L-108.3 39.5L-108.6 38.7L-109.35 40.7L-109.1 41.9L-109.85 43.45L-110.3 43.35Q-112.25 42.7 -114.2 40.7Q-113.1 44.95 -112.95 48.55Q-113 50.25 -113.3 51.35L-113.55 51.95L-114.65 53.15L-114.25 55.05L-114.25 55.15Q-114.35 57.55 -115.05 58.6L-116.1 59.3L-116.25 59.25L-117.7 57.85Q-119.25 55.9 -119.7 54.5Q-120.8 51.6 -120.5 51.05L-120.65 50.35L-120.7 50.25L-120.7 49.8L-120.65 49.7L-120.6 49.6L-119.75 45.7L-120.25 43.75L-120.85 42.5L-122.2 43.5Q-123.75 43.2 -125.3 41.6L-127.05 39.35L-127.7 38.5L-128.65 42.3L-128.6 42.35L-128.7 42.5L-129 43.8Q-130.35 43.6 -131.55 42.45Q-133.05 41.15 -134.45 38.8L-134.8 38.35L-134.2 39.9L-133.1 42.6L-132.5 43.6Q-131.65 45.05 -130.8 45.2L-130.75 45.05Q-130.4 44.8 -129.55 45.95L-129.4 46.15Q-128.7 47.25 -127.9 49.35Q-127.2 51.35 -127.1 52.75L-127.1 52.8L-127.25 53.6L-127.65 56.2L-127.4 57.15L-127.85 58.3L-128.15 58.2Q-130.05 57.2 -132.2 54.05Q-135.3 49.35 -137.15 44.1L-144.2 25.55L-145.9 21.9L-146.05 21.7L-146 21.9L-145.85 22.4L-141.2 36.45L-140.55 39.55L-140.55 39.65L-140.75 42.6L-140.7 42.7L-140.75 43.15L-140.9 43.65L-141 43.9L-141.4 43.65L-142.2 42.85Q-143.35 41.05 -143.55 39.95L-148.65 26.3L-150 22.75L-149.7 29.45L-149.85 30.55L-149.65 31.95Q-150.2 32.65 -149.9 33.2Q-150.2 33 -150.5 32.95L-150.05 33.4Q-149.6 33.9 -149.05 33.85L-147.65 33.55Q-147.25 33.2 -146.45 34.45L-145.2 37.4L-144.5 40.25L-144.7 41.3L-144.2 42.9L-144.45 44.1L-144.55 44.3L-145.85 44.05Q-147.85 43.65 -150.1 39.95L-150.45 39.4Q-151.45 36.95 -152.05 34.35L-151.85 34.1L-151.8 33.9L-152.4 29.45L-152.3 29.7L-152.3 29.5L-152.45 29.25L-152.75 26L-152.7 24.55Q-152.55 23 -153.55 22.2L-153.6 21.75Q-153.75 18.1 -155.4 14.9L-155.4 14.8Q-155.5 13.5 -156.55 12.85L-156.75 13Q-157.55 13.8 -157.3 15.05L-158.1 15.1L-158.2 15.45Q-158.05 14.6 -157.45 14.45L-157.45 14.35Q-157.25 12.25 -156.2 11.95Q-155.15 11.35 -153.45 13.3L-152.4 14.6L-151.95 15.25L-151.4 16.3Q-151.9 14.15 -151.5 13.2L-151.25 12.65L-150 10.3L-149.75 9.75Q-149.5 8.95 -148.85 8.7Q-147.55 8.05 -145.3 11.05L-145 11.45L-144.35 12.55L-143.6 13.9Q-143.85 12.1 -143.55 11.15L-143.35 10.55Q-143.3 10.1 -142.9 9.9L-142.2 9.7Q-142.15 8.9 -141.4 9.7Q-141.5 7.9 -141.15 6.7Q-140.95 5.7 -140.45 5.2Q-140.15 4.75 -139.65 4.55Q-139.3 4.15 -138.3 5.4L-137.75 6.35L-136.4 3.45L-136.35 3.35Q-136.3 3.05 -136 3.1Q-134.95 2.5 -133.55 5.8L-130.4 0.9Q-130.2 0.4 -129.75 0.4Q-129.4 -0.05 -128.3 1.15Q-127.45 2.25 -126.65 4.55L-126.55 4.75L-123.7 -0.15L-126.4 -7.1Q-127.85 -10.15 -127.5 -11.05L-127.55 -11.35L-127.6 -12.2L-127.25 -12.7L-122.45 -20.05L-122.35 -20.3L-121.8 -20.9Q-120.2 -21.75 -118.3 -16.75L-112.2 0.2L-112.2 0.25L-112 0.15L-108.3 -7.45L-107.65 -8.75Q-106.95 -9.85 -105.85 -10.2L-104.15 -10.6Q-101.5 -10.5 -98 -6.5L-95.9 -3.9L-95.9 -3.85L-90.65 -13.8Q-90.25 -15.7 -89.3 -16.85Q-88.45 -17.95 -87.2 -18.45Q-83.5 -20.6 -77.7 -14.7L-77.3 -14.3L-76.6 -13.45L-74.4 -10.75L-68.4 -23.55L-67.4 -25.65Q-66.15 -27.75 -63.95 -28.5L-62 -29.1Q-62.35 -31.85 -62 -34.2Q-62.15 -38.75 -57.75 -47.55Q-53.4 -56.4 -54.45 -52.1Q-55.5 -47.85 -56.95 -44.75Q-55.8 -45.65 -54.25 -45.65L-54.4 -47.45L-54.35 -50.75Q-54.3 -51.6 -54.5 -51.5Q-51.95 -58.65 -51.3 -59.6Q-50.55 -60.85 -48.95 -61.6Q-44.1 -64.5 -37.3 -59.5Q-30.65 -54.7 -25.7 -44L-25.25 -42.95L-24.55 -40.15L-24.2 -36.8Q-24.55 -34.45 -26.35 -33.5L-26.8 -33.35L-27.1 -33.35L-32.15 -22.2L-22.5 -25.55L-21.1 -25.7L-20.9 -25.7Q-19.05 -29.9 -14.65 -30.8Q-15.45 -34.55 -15.4 -37.9Q-15.4 -36.75 -14.65 -39.3Q-13.7 -42.65 -7.7 -53.5Q-5.65 -54.75 -2.65 -52.65Q-0.25 -51.25 1.65 -47.15L1.85 -46.75L4.55 -55.8Q4.55 -57.1 5.05 -58Q5.65 -59.3 7.1 -59.85L7.35 -60.05Q9.5 -61.4 12.7 -59.45Q15.35 -57.5 17.5 -53.4L24.85 -37.7Q24.85 -39 25.4 -40Q25.3 -41.7 26.05 -42.75L30.8 -64.55Q30.6 -66 31 -67.2L31.05 -67.85L31.25 -68.65L30.8 -69.7Q28.4 -74.5 28.75 -78.3Q28.75 -79.55 29.15 -80.55L29.2 -80.75Q29.25 -83.25 30.05 -84.9L34.35 -105.35L34.4 -105.35L34.45 -105.7Q34.6 -107.35 35.15 -108.55L34.75 -107.35L35.15 -107.05Q36.85 -105.65 38.7 -104.4Q43.3 -101.3 45.1 -105L45.7 -105.45Q46.15 -105.85 46.2 -106.45Q46.2 -107.35 45.6 -107.95Q47.8 -107.85 48.65 -109.7L48.9 -110.55Q51.8 -108.35 54.05 -104.55Q55.85 -100.1 55.8 -94.8L55.75 -94.5L55.3 -92.95L54.8 -87.15L51.55 -88.45L51.15 -88.35L50.65 -88.2Q49.6 -87.35 50.15 -86.1Q51.05 -84.1 52.6 -82.5Q53.45 -82.05 54.35 -81.8L54.2 -80.45L54.75 -80.6L57.35 -81.5Q59.1 -79.4 61.7 -78.65Q70.3 -76.15 78.75 -73.15Q95.65 -67.25 107.05 -53.5L107.6 -52.4Q108.05 -51.25 108.95 -51.2Q108.8 -51.9 108.3 -52.45Q107.4 -53.5 107.6 -54.55Q105.1 -57.95 102.05 -61.15Q98.85 -64.55 95 -67.25Q81.5 -76.65 65.3 -80.2Q64.05 -80.45 63.2 -81.3L62.75 -81.75L63.05 -88.55Q66.85 -85.95 72.3 -87Q72.95 -86.85 73.55 -87Q75.05 -87.5 75 -89.1L74.95 -89.3Q70.15 -95.7 63.15 -99.4ZM134.55 -34.25Q139.7 -36.1 141.5 -41.15Q142.35 -43.7 142.05 -46.45L139.2 -45.35L117 -40.35Q119.4 -37.95 122.85 -36.15Q128.45 -33.05 134.55 -34.25ZM-84.05 -48.2L-84.25 -48.35L-76.9 -60.2L-76.7 -60.65L-75.8 -61.4Q-75.25 -62.05 -74.2 -61.55Q-71.35 -61.1 -68.75 -55.6L-67.85 -52.4L-65.45 -39.95Q-64.5 -34.8 -66.65 -33.35L-66.8 -33.25L-72.7 -21.4Q-72.85 -19.15 -74 -18.05L-74.25 -18.1L-75.75 -18.3Q-79.25 -20.4 -81.1 -25.25Q-82.2 -27.6 -82.15 -28.6L-85.1 -41.25Q-85.95 -44.45 -85.65 -46.15Q-85.4 -47.6 -84.45 -48.05L-84.05 -48.2ZM-15.15 -41.3L-15.35 -38.9L-15.4 -38.15L-15.15 -41.3ZM-49.85 4L-51.65 9.2Q-50.05 10.1 -48.4 9.8L-47.45 9.6L-49.85 4ZM-55.25 19.35L-55.35 19.6Q-56.05 21.35 -56.55 21.9L-56.2 22.05L-54.85 18.2L-54.85 18.15L-55.2 17.85L-55.25 19.35ZM-117.45 16.45Q-116.7 18.65 -115.55 20.6L-118.4 13.55L-117.45 16.45ZM-137.5 16.25Q-137.55 18.75 -136.25 22.1Q-135.35 25.2 -133.65 27.45Q-133.05 28.55 -132.3 29.1L-132.3 28.95L-137.55 15.4L-137.5 16.25ZM-141.9 25L-141.2 26.8L-141.85 24.95L-141.9 25Z" fill="#005500" fill-rule="evenodd"/>
  <path d="M171.85 -37.2L171.75 -34.35L171.75 -34.1L175.85 3.85Q165.75 31.95 140.6 37.45Q134 36.3 127.7 33.65Q141.75 30.45 152.5 22.35Q152.9 20.85 154.9 19.55L155.85 18.9L158.45 16.4L158.3 15.8Q158.2 14.7 159.05 13.95L159.7 13.45Q160.1 11.55 161.4 10.2L162.1 9.65Q169.85 -4.4 170.4 -20.4Q170.75 -29.05 171.8 -37.2L171.85 -37.2ZM-150.45 39.4Q-153.15 34.8 -154.8 29.75Q-157.6 23 -157.8 19.35Q-158.3 17.4 -158.25 16.25L-158.25 16.1L-158.25 16.05L-158.25 15.95L-158.2 15.45L-158.1 15.1L-157.3 15.05Q-157.55 13.8 -156.75 13L-156.55 12.85Q-155.5 13.5 -155.4 14.8L-155.4 14.9Q-153.75 18.1 -153.6 21.75L-153.55 22.2Q-152.55 23 -152.7 24.55L-152.75 26L-152.45 29.25Q-153.35 27.2 -153.1 26.65L-153.6 22.45Q-154.4 21.65 -154.1 22.35Q-154.2 22.2 -154.2 22.3Q-154.2 24.3 -153.2 27.35L-152.4 29.45L-151.8 33.9L-151.85 34.1L-152.05 34.35Q-151.45 36.95 -150.45 39.4ZM35.15 -108.55L37.35 -111.3L37.5 -111.4L37.55 -111.45L37.65 -111.5L37.8 -111.6L37.9 -111.65L38.05 -111.75L38.15 -111.8L38.3 -111.85L38.45 -111.95Q40.1 -113.15 42.15 -113.15Q44.25 -113.15 46.8 -111.9L48.9 -110.55L48.65 -109.7Q47.8 -107.85 45.6 -107.95Q46.2 -107.35 46.2 -106.45Q46.15 -105.85 45.7 -105.45L45.1 -105Q43.3 -101.3 38.7 -104.4Q36.85 -105.65 35.15 -107.05L34.75 -107.35L35.15 -108.55ZM63.05 -88.55L63.5 -98.05Q63.25 -98.75 63.15 -99.4Q70.15 -95.7 74.95 -89.3L75 -89.1Q75.05 -87.5 73.55 -87Q72.95 -86.85 72.3 -87Q66.85 -85.95 63.05 -88.55Z" fill="#017801" fill-rule="evenodd"/>
  <path d="M68.6 -106.55Q67.85 -109.2 68.55 -111.35L68.7 -111.75Q69.2 -116.1 73.1 -117.75Q76.65 -119.75 80.7 -118Q84.1 -116.55 86.75 -111.55L90.9 -103.25L123.95 -117.9Q128.5 -120.15 133.45 -117.75Q137.8 -115.9 141 -110.95Q143.15 -106.9 143.2 -103.7L142.95 -101.6Q141.85 -97.25 135.85 -94.9L101.35 -82.15L113.8 -56.9Q115 -54.35 116.85 -52.35Q119 -50.05 122.05 -48.5Q127.2 -45.7 132.75 -46.95Q137.65 -48.8 139.55 -53.45Q140.45 -55.8 140.3 -58.45Q140.15 -61.1 138.85 -64.05L138.05 -65.55Q134.9 -71.2 136.8 -75.2Q137.05 -76.2 137.55 -77.05Q138.55 -78.9 140.6 -80Q141.65 -80.6 143.05 -81L144.45 -81.45Q147.85 -82.35 151.35 -81L152.9 -80.3Q157.5 -78.1 161.1 -72.7L162.1 -70.95Q165.55 -64.25 166.6 -57.85Q167.5 -52.55 166.75 -47.5Q166.2 -43.85 164.85 -40.3Q163.45 -36.7 161.25 -33.75Q156.65 -27.65 148.55 -24.75L144.45 -23.55L139 -22.95Q127.1 -22.5 115.6 -29Q107.6 -33.8 102.05 -40.65Q98.15 -45.45 95.4 -51.3L69.7 -103.8L68.6 -106.55ZM2.9 -45.35L2.35 -44.6Q1.7 -43.55 1.55 -42.05L1.35 -40.7Q1.25 -39.55 1.5 -38.25Q1.75 -37 2.35 -35.55L2.7 -34.75L15.05 -7Q16.35 -3.7 16.05 -0.75L15.1 0.8L14.8 1.15Q14.05 1.9 13.15 2.3Q10.65 2.55 8.45 0.75Q5.9 -1.3 4.4 -4.75L-7.1 -31.35L-7.15 -31.4L-8.7 -35.35L-10.15 -40.7Q-10.85 -44.25 -10.75 -47.5L-10.4 -50.85L-10.25 -51.75L-9.65 -54.5Q-7.85 -60.6 -2.65 -62.75Q-0.55 -64 2.4 -62.05Q4.65 -60.65 6.45 -56.8L6.6 -56.35L7.45 -53.05Q7.9 -49.65 5.9 -47.65L4.5 -46.6L2.9 -45.35ZM-19.4 1.65Q-18.5 4.05 -18.5 6.35L-19.15 7.9L-19.4 8.2Q-19.95 8.8 -20.65 9Q-22.7 9.1 -24.55 7.55Q-26.4 5.6 -27.55 3.05L-27.65 2.8L-46.4 -42.15Q-49.2 -48.7 -49.7 -54.35L-49.85 -56.15L-49.75 -59.35Q-49.55 -62.2 -48.75 -64.35L-48.75 -64.4L-48.55 -64.9L-47.4 -67.05L-46.95 -67.65L-46.8 -67.85Q-45.65 -69.25 -43.95 -70.1Q-39 -72.95 -32.15 -68.2Q-25.55 -63.55 -20.85 -53.3L-20.45 -52.25L-19.85 -49.5Q-19.55 -47.9 -19.5 -46.3Q-19.9 -44 -21.75 -43.05L-22.2 -42.95L-22.5 -42.9Q-24.1 -42.75 -25.65 -44Q-27.95 -45.55 -29.15 -48.55L-29.55 -49.45L-30.8 -51.95Q-32.1 -54.1 -33.55 -55.2Q-36.1 -57 -37.95 -55.85Q-39.3 -55.25 -39.9 -53.95L-40.3 -52.1L-40.3 -49.8Q-40.1 -47.65 -39.15 -45.3L-32.8 -30.25L-27.85 -32L-18.1 -35.4L-16.75 -35.65L-16.55 -35.6Q-15.45 -35.45 -14.1 -34.4L-13.55 -33.95Q-11.85 -32.45 -10.3 -29.25Q-9.5 -27.05 -9.35 -24.8L-9.35 -23.4Q-9.7 -21.55 -10.75 -20.7Q-11.15 -20.4 -11.65 -20.25L-26.7 -15.85L-19.7 0.9L-19.4 1.65ZM-63 16.05Q-64.2 17.65 -66.1 18.15L-67.15 18Q-68.05 17.65 -68.85 16.75Q-70.35 15.1 -71.2 12.7Q-72.4 9.85 -72.25 8.1Q-72.25 6.25 -70.85 6L-70.65 5.9Q-69.65 5.4 -69.1 4L-68.75 2.6L-68.65 1.75Q-68.45 -1.85 -70.15 -6.3Q-71.25 -8.9 -72.45 -10.75Q-73.5 -12.4 -74.65 -13.5Q-76.75 -15.4 -78.25 -15.45L-79.4 -15.25L-80 -14.95Q-81.4 -14.05 -81.4 -10.95L-81.45 -10.55Q-81.65 -7.6 -79.95 -3.25L-67.4 28.35L-66.4 30.9Q-65.45 33.55 -65.5 35.35L-65.65 36.2L-65.7 36.35Q-66.05 37.15 -66.8 37.25Q-68.2 37.3 -69.5 35.9Q-70.95 34.2 -71.75 31.7L-85 -1.85L-85.25 -2.5L-85.7 -3.8Q-87.35 -8.55 -87.9 -12.7L-88.1 -14.9L-88.15 -17.9Q-88.1 -20.5 -87.6 -22.35Q-87.1 -24.25 -86.1 -25.4Q-85.2 -26.5 -83.9 -27Q-80.05 -29.2 -74.25 -23.6L-73.8 -23.2L-73.05 -22.45L-70.85 -19.85L-70.8 -19.75L-69.5 -17.95Q-66.7 -13.8 -64.35 -8.1L-63.8 -6.7L-62.8 -3.6Q-61.3 1.3 -61 5.55L-60.9 7.85L-61 9.5Q-61.35 13.85 -63 16.05ZM-85.4 20.95L-85.45 20.95L-85.55 21.1Q-86.4 22.05 -87.6 22.35L-88.2 22.4Q-91.2 22.45 -94.5 19.15L-95.75 17.8Q-100.45 12.35 -103.5 4.2L-104.2 2.4L-104.2 2.35Q-106.15 -2.95 -106.55 -7.35L-106.6 -8.8L-106.6 -10.4L-106.6 -11.65Q-106.55 -14.1 -105.95 -15.65L-105.25 -17Q-104.5 -18.05 -103.3 -18.5Q-99.95 -20.1 -95.2 -15.1L-93.1 -12.6L-93.05 -12.6L-92.25 -11.45Q-90.2 -8.6 -88.45 -4.8L-86.9 -1.35L-86.8 -1Q-83.8 6.85 -83.6 13.2L-83.6 14.75Q-83.8 18 -84.75 19.9L-85.4 20.95ZM-112.45 31.25Q-111.35 35.35 -111.2 38.75Q-111.3 40.45 -111.65 41.55L-111.9 42.15Q-112.35 42.95 -113 43.25L-113.6 43.4L-113.65 43.45Q-114.5 43.4 -115.3 42.3Q-116.35 41 -117.05 39.05Q-117.85 36.9 -117.75 35.55Q-117.9 34.1 -117.1 34.2L-117.05 34.2Q-116.5 33.95 -116.25 33.05L-116.15 32.2L-116.25 31.4Q-116.45 29.85 -117 28.2L-117.55 26.9L-118.35 27.95L-119.05 28.3Q-121.45 28.65 -124.25 24.85L-124.4 24.65Q-127.3 20.85 -129.4 15.1L-134.7 0.4Q-135.55 -1.65 -135.5 -2.9Q-135.65 -3.75 -135.45 -4.15L-135.4 -4.3L-135 -4.55Q-133.85 -5.15 -132.45 -1.9L-132.1 -1.05L-132 -0.8L-126.5 14.2Q-125.7 16.4 -124.5 17.95Q-123.45 19.2 -122.55 19.1L-122.15 18.75Q-121.8 18.15 -121.7 17.15L-121.75 16.65Q-121.95 15 -122.6 13.05L-128.25 -2.15Q-129.2 -4.35 -129.15 -5.75L-129.05 -6.9Q-128.9 -7.35 -128.4 -7.4Q-127.95 -7.8 -126.85 -6.7Q-125.95 -5.55 -125.15 -3.45L-125.1 -3.2L-113.7 27.5L-112.6 30.85L-112.45 31.25ZM-133.85 29.85L-133.3 31.35L-132.15 33.95L-131.55 34.85Q-130.65 36.25 -129.7 36.3L-129.65 36.2Q-129.3 35.95 -128.4 37L-128.25 37.2Q-127.55 38.2 -126.7 40.2Q-126.05 42.15 -125.95 43.45L-125.95 43.55L-126.05 44.25L-126.55 44.8L-126.6 44.8L-127.2 44.75Q-129 44.4 -131.25 41.3Q-133.4 38.35 -135 34.35L-135.9 31.9L-140.65 18.85L-141.25 17.15L-142.5 13.7Q-143.35 11.6 -144.25 10.4Q-144.95 9.45 -145.4 9.4L-145.7 9.45Q-146.45 9.6 -146.3 11.15Q-146.3 12.3 -145.7 14.05L-145.6 14.3L-145.45 14.75L-140.65 28.25Q-140.15 29.9 -139.95 31.2L-139.95 31.35Q-140.1 32.25 -140.4 32.5L-140.65 32.5L-141.75 31.6L-143.05 28.85L-147.9 15.45Q-149.9 10.05 -150 6.2L-150.05 5.05L-150.05 4.85L-149.8 3L-149.6 2.4Q-149.25 1.65 -148.6 1.45Q-147.25 0.7 -144.9 3.6L-144.6 3.95L-143.85 5L-143.05 6.3Q-141.5 9 -140.1 12.8L-133.85 29.85ZM-149.9 15.2L-149.6 21.75L-149.7 22.85L-149.95 23.15Q-150.45 23.1 -151.05 22.15L-152.4 19.5Q-153 18 -152.95 16.75L-153.25 12.4L-153.75 12.35Q-154.6 12.45 -154.35 14.8L-154.35 14.95Q-154.25 16.95 -153.25 19.8L-152.3 22.15L-151 24.4L-150.4 25.2L-149.95 25.7L-148.95 26.1L-147.4 25.7Q-146.95 25.4 -146.15 26.55Q-145.6 27.4 -144.8 29.35L-144.15 32.1Q-144.15 32.75 -144.3 33.1L-144.65 33.45L-146.1 33.75Q-148 34.05 -150.6 30.25Q-153.3 26.3 -155.25 20.5Q-157.55 14.35 -157.75 10L-157.8 7.4L-157.8 7.3Q-157.6 5.25 -156.45 4.9Q-155.35 4.2 -153.5 6.05L-152.4 7.35L-151.9 8L-151.35 8.9L-150.6 10.5Q-150.1 12.25 -149.95 13.9L-149.9 15.2ZM-140.8 2.2Q-140.8 0.35 -140.45 -0.85L-139.7 -2.3L-138.85 -2.95Q-138.45 -3.4 -137.5 -2.15L-136.9 -1.25L-136 0.75L-135.9 1.05L-135.5 2.6L-135.25 4.05L-135.25 4.1Q-135.25 5.3 -135.75 5.65Q-136.7 5.85 -136.7 7.6L-136.7 8.45Q-136.7 10.9 -135.4 14.15Q-134.45 17.1 -132.7 19.25L-131.25 20.75Q-130.65 21.1 -130.1 21.05Q-129.55 20.8 -128.6 22Q-127.8 23 -127 25.25Q-126.45 26.95 -126.25 28.45L-126.3 28.75L-126.3 28.95L-126.6 29.55L-126.95 29.8Q-127.85 29.95 -128.9 29.4Q-130.55 28.5 -132.45 25.9L-132.5 25.85Q-135.9 21.35 -138.1 14.95L-138.65 13.3L-138.7 13.15Q-139.8 9.9 -140.3 7.15L-140.4 6.5L-140.75 3.15L-140.8 2.45L-140.8 2.2ZM-120.65 -27.7L-120.55 -27.95L-119.9 -28.6Q-118.2 -29.4 -116.3 -24.5L-110.05 -8.1L-110 -8.05L-99.7 19L-99.55 19.5Q-99.05 21.25 -98.9 22.85L-98.95 23.15L-99.25 24.05L-99.8 24.6Q-100.85 24.6 -101.8 23.4L-103.25 21.05L-103.4 20.7L-103.75 19.85L-119.85 -22.75Q-120.8 -24.95 -120.75 -26.45L-120.65 -27.7ZM-64.5 -32.5L-63.5 -34.55Q-62.15 -36.6 -59.85 -37.4L-57.9 -38.05Q-53.75 -38.75 -48.25 -34.2L-47.55 -33.65Q-45.85 -31.95 -44.6 -29.25Q-43.8 -27.25 -43.7 -25.3L-43.8 -23.4L-45.4 -8.5Q-45.65 -7.15 -46.15 -6.45L-46.2 -6.35L-46.95 -5.8Q-48.45 -5.55 -50.2 -7.1L-50.95 -7.9Q-52.4 -9.6 -53.2 -11.7Q-54.1 -13.7 -54.1 -15.65L-54.05 -16.65L-53.15 -24.6L-53.9 -24.65L-54.65 -24.45Q-56.65 -24 -57.2 -21.5L-57.4 -19.6L-57.45 -18.85Q-57.65 -15.3 -55.6 -10.7Q-54.05 -6.3 -50.95 -3.3L-50.65 -3Q-49.4 -1.85 -48.15 -1.25Q-46.5 -0.45 -44.85 -0.8L-43.95 -1L-40.2 -1.8Q-38.7 -2.45 -36.8 -0.65Q-35.1 0.9 -33.6 4.1Q-32.45 7 -32.55 9.5L-33.15 10.95Q-33.65 11.65 -34.4 11.95L-39.3 12.8L-41.3 12.95Q-44.5 12.8 -47.95 10.45L-51.5 7.45L-51.55 7.45L-51.85 7.1Q-56.85 2.2 -60.35 -5.05L-61.75 -8.25L-61.95 -8.85Q-64.25 -14.35 -65.05 -19.25L-65.45 -22.5Q-65.65 -24.9 -65.45 -27.15Q-65.35 -30.3 -64.5 -32.5ZM9.55 -65.15Q9.6 -66.4 10.1 -67.3Q10.75 -68.6 12.2 -69.2L12.5 -69.3Q14.65 -70.7 17.7 -68.8Q20.3 -67 22.25 -63.05L29 -48.05L29 -48L35.45 -33.7Q37.3 -29.45 41.2 -26.9Q44.6 -24.6 48.55 -25Q51 -26.15 52.2 -29.2L52.55 -30.05Q53.15 -33.7 51.3 -38.35L37.1 -69.2Q35.75 -71.85 35.65 -74Q35.55 -75.4 35.95 -76.55L36.05 -77.15L36.25 -77.95Q37 -80.2 39.55 -80.95Q42.35 -82.4 45.45 -80.7Q48.35 -79.05 50.4 -74.7L65.75 -42.55Q71.65 -29.8 69.2 -18.8Q68.35 -15.65 66.9 -13.25L66.5 -12.6Q64.45 -9.6 61.35 -7.85Q59.35 -6.8 57 -6.2Q51.2 -5.2 45.3 -7.45Q41.6 -8.85 37.9 -11.55Q28.45 -18.6 23.35 -30.3L10.8 -58.4Q10.15 -59.85 9.85 -61.15Q9.25 -63.35 9.55 -65.15ZM40.55 -113.55L40.6 -114Q41.25 -118.35 44.8 -120.05Q48.1 -122.45 52.95 -119.95Q57.05 -117.8 59.75 -112.9Q61.35 -108.5 61.05 -103.4L61.05 -103.15L60.55 -101.65Q59.1 -98.05 56.15 -96.4Q52.05 -95 48.35 -97.15Q43.7 -99.75 41.95 -104.15Q39.35 -108.85 40.55 -113.55ZM59 -89.55L59.45 -89.7Q63.7 -91.8 67.15 -89.6L67.25 -89.5Q69.1 -88.25 70.7 -85.65L71.95 -83.35L99.4 -26.35Q101.1 -22.75 100.75 -19.45L100.55 -18.2L100.2 -17.5Q98.8 -15.05 95.6 -13.85Q93.8 -13.65 92.25 -13.9Q90 -14.3 88.2 -15.7Q84.1 -18.25 82.7 -22.35L56.8 -77.15L56.4 -77.8Q54.3 -81.75 55.3 -85L55.5 -86.15L55.95 -87.2Q56.8 -88.8 59 -89.55ZM-113.75 11.9L-112.45 13.75Q-110.6 15.8 -109.1 15.65Q-108.65 15.45 -107.95 15.95L-107.2 16.65Q-106.2 17.85 -105.3 20.2Q-104.65 22.2 -104.5 23.9L-104.5 24.05L-104.5 24.15Q-104.6 25 -105.05 25.35L-105.4 25.5Q-106.8 25.8 -108.35 24.95Q-110.25 23.9 -112.4 21.25Q-116.45 16.3 -119 9.05L-120 6.2Q-121.65 1.1 -121.85 -3L-121.9 -4.35L-121.8 -7.5L-121.35 -9.3L-120.8 -10.35Q-120.3 -11.15 -119.45 -11.45L-119.35 -11.5Q-118.65 -12 -117.65 -10.75Q-116.75 -9.8 -115.75 -7.4L-115.1 -4.9L-114.95 -3.65Q-115.05 -2.55 -115.5 -2.05L-115.75 -1.9Q-117.15 -1.6 -117 1.45Q-117.1 3.1 -116.55 5.1L-115.65 7.9Q-114.9 10.1 -113.75 11.9ZM-100.8 -4.4L-100.8 -4.15Q-101 -1.15 -99.45 2.95Q-98.1 6.65 -95.7 9.3Q-93.5 11.75 -91.75 11.35L-91.6 11.3Q-90.65 10.85 -90.3 9.35Q-90.1 8.65 -90.05 7.75Q-90.05 4.4 -91.5 0.45Q-92.55 -2.3 -93.95 -4.35L-95.35 -6.15Q-97.8 -8.7 -99.25 -8Q-100.9 -7.5 -100.8 -4.4ZM-72.7 -68.3L-72.45 -68.75L-71.55 -69.5Q-70.9 -70.15 -69.85 -69.65Q-66.9 -69.25 -64.4 -63.9L-63.5 -60.75L-61.2 -48.6Q-60.35 -43.55 -62.55 -42.1L-62.75 -41.95L-64.45 -41.95Q-67.95 -43.1 -69.65 -48.05Q-70.6 -49.7 -70.7 -51L-72.85 -62.65Q-73.75 -66.5 -72.7 -68.3Z" fill="#ffffff" fill-rule="evenodd"/>
  <path d="M142.95 -101.6L144.45 -81.45L143.05 -81Q141.65 -80.6 140.6 -80Q138.55 -78.9 137.55 -77.05Q137.05 -76.2 136.8 -75.2Q134.9 -71.2 138.05 -65.55L138.85 -64.05Q140.15 -61.1 140.3 -58.45L137.65 -57.35L116.85 -52.35Q115 -54.35 113.8 -56.9L101.35 -82.15L135.85 -94.9Q141.85 -97.25 142.95 -101.6ZM166.75 -47.5L168.5 -10.85L168.45 -10.85Q168.75 -2.65 165.55 4.75Q158.3 17.6 142.45 19.15Q126.2 19.3 111.95 9.7Q104.45 4.05 99.2 -2.6L98.35 -3.7L95.85 15.1L95.6 18.7L95.3 19.15Q93.75 21.3 90.45 22.15Q85.9 21.85 82.75 19.6Q78.35 15.8 77 11.95L66.9 -11.6L64.05 6.45Q64 10.25 63.05 13.7L62.75 14.45Q59.2 23.2 50.4 24.45Q40.55 24.45 31.3 16.95Q27.25 13.35 24.1 9.25Q19.4 3.25 16.6 -3.85L3.5 -34.45L2.65 -36.55L2.1 -38.4Q1.7 -40.35 2.2 -41.65L2.4 -43.2L2.2 -43.25L2.9 -45.35L4.5 -46.6L5.9 -47.65Q7.9 -49.65 7.45 -53.05L6.6 -56.35L9.55 -65.15Q9.25 -63.35 9.85 -61.15Q10.15 -59.85 10.8 -58.4L23.35 -30.3Q28.45 -18.6 37.9 -11.55Q41.6 -8.85 45.3 -7.45Q51.2 -5.2 57 -6.2Q59.35 -6.8 61.35 -7.85Q64.45 -9.6 66.5 -12.6L66.9 -13.25Q68.35 -15.65 69.2 -18.8Q71.65 -29.8 65.75 -42.55L50.4 -74.7Q48.35 -79.05 45.45 -80.7Q42.35 -82.4 39.55 -80.95Q37 -80.2 36.25 -77.95L35.85 -78.9Q33.7 -83.55 34.1 -87.3L34.55 -89.5L34.6 -89.65Q34.75 -92.05 35.6 -93.65L40.5 -113.55L40.55 -113.55Q39.35 -108.85 41.95 -104.15Q43.7 -99.75 48.35 -97.15Q52.05 -95 56.15 -96.4Q59.1 -98.05 60.55 -101.65L59 -89.55Q56.8 -88.8 55.95 -87.2L55.5 -86.15L55.3 -85Q54.3 -81.75 56.4 -77.8L56.8 -77.15L82.7 -22.35Q84.1 -18.25 88.2 -15.7Q90 -14.3 92.25 -13.9Q93.8 -13.65 95.6 -13.85Q98.8 -15.05 100.2 -17.5L100.55 -18.2L100.75 -19.45Q101.1 -22.75 99.4 -26.35L71.95 -83.35L70.7 -85.65Q69.1 -88.25 67.25 -89.5L67.15 -89.6L68.6 -106.55L69.7 -103.8L95.4 -51.3Q98.15 -45.45 102.05 -40.65Q107.6 -33.8 115.6 -29Q127.1 -22.5 139 -22.95L144.45 -23.55L148.55 -24.75Q156.65 -27.65 161.25 -33.75Q163.45 -36.7 164.85 -40.3Q166.2 -43.85 166.75 -47.5ZM14.8 1.15L9.2 24.4L9.1 24.4Q8.05 26.45 6.4 27.2Q3.35 26.65 1.55 25.05Q-1.45 22.1 -2.4 19.2L-14.4 -9.1L-14.6 -9.55L-16.65 -3.5L-16.4 -1.35Q-17.25 0.6 -18.85 1.55L-19.4 1.65L-19.7 0.9L-26.7 -15.85L-11.65 -20.25Q-11.15 -20.4 -10.75 -20.7Q-9.7 -21.55 -9.35 -23.4L-9.35 -24.8Q-9.5 -27.05 -10.3 -29.25Q-11.85 -32.45 -13.55 -33.95L-14.1 -34.4Q-15.45 -35.45 -16.55 -35.6L-15.9 -36.75L-9.7 -54.55L-9.65 -54.5L-10.25 -51.75L-10.4 -50.85L-10.75 -47.5Q-10.85 -44.25 -10.15 -40.7L-8.7 -35.35L-7.15 -31.4L-7.1 -31.35L4.4 -4.75Q5.9 -1.3 8.45 0.75Q10.65 2.55 13.15 2.3Q14.05 1.9 14.8 1.15ZM-19.4 8.2L-25.1 26.3L-25 26.85L-25.5 27.55Q-26.3 28.55 -27.3 28.9Q-29.6 28.75 -30.9 27.35Q-33.45 24.4 -34.35 21.85L-35.85 18.3L-39.05 26.8L-38.95 27.65Q-39.3 29 -40.1 29.65L-40.55 29.9L-45.25 30.3Q-51.25 30.05 -57.35 23.35L-58.3 22.25Q-60.8 19.4 -62.9 16.2L-63 16.05Q-61.35 13.85 -61 9.5L-60.9 7.85L-61 5.55Q-61.3 1.3 -62.8 -3.6L-63.8 -6.7L-64.35 -8.1Q-66.7 -13.8 -69.5 -17.95L-70.8 -19.75L-70.85 -19.85L-64.5 -32.5Q-65.35 -30.3 -65.45 -27.15Q-65.65 -24.9 -65.45 -22.5L-65.05 -19.25Q-64.25 -14.35 -61.95 -8.85L-61.75 -8.25L-60.35 -5.05Q-56.85 2.2 -51.85 7.1L-52 8.6L-52.1 8.9Q-52.75 10.55 -53.35 11.1L-52.95 11.25L-51.5 7.45L-47.95 10.45Q-44.5 12.8 -41.3 12.95L-39.3 12.8L-34.4 11.95Q-33.65 11.65 -33.15 10.95L-32.55 9.5Q-32.45 7 -33.6 4.1Q-35.1 0.9 -36.8 -0.65Q-38.7 -2.45 -40.2 -1.8L-43.95 -1L-46.2 -6.35L-46.15 -6.45Q-45.65 -7.15 -45.4 -8.5L-43.8 -23.4L-43.7 -25.3Q-43.8 -27.25 -44.6 -29.25Q-45.85 -31.95 -47.55 -33.65L-48.25 -34.2Q-53.75 -38.75 -57.9 -38.05Q-58.15 -40.65 -57.8 -42.95Q-57.9 -47.35 -56.55 -49.95L-56.1 -50.75L-48.85 -64.4L-48.75 -64.35Q-49.55 -62.2 -49.75 -59.35L-49.85 -56.15L-49.7 -54.35Q-49.2 -48.7 -46.4 -42.15L-27.65 2.8L-27.55 3.05Q-26.4 5.6 -24.55 7.55Q-22.7 9.1 -20.65 9Q-19.95 8.8 -19.4 8.2ZM-67.15 18Q-66.6 20.9 -66.5 23.55L-66.45 24.1L-66.65 25.4Q-66.9 27.05 -67.4 28.35L-79.95 -3.25Q-81.65 -7.6 -81.45 -10.55L-81.4 -10.95Q-81.4 -14.05 -80 -14.95L-79.4 -15.25L-78.25 -15.45Q-76.75 -15.4 -74.65 -13.5Q-73.5 -12.4 -72.45 -10.75Q-71.25 -8.9 -70.15 -6.3Q-68.45 -1.85 -68.65 1.75L-68.75 2.6L-69.1 4Q-69.65 5.4 -70.65 5.9L-70.85 6Q-72.25 6.25 -72.25 8.1Q-72.4 9.85 -71.2 12.7Q-70.35 15.1 -68.85 16.75Q-68.05 17.65 -67.15 18ZM-65.7 36.35L-69.65 48.05L-69.6 48.15L-69.9 48.8Q-70.4 49.7 -70.9 49.85Q-72.55 49.25 -73.5 47.95Q-75.15 45.9 -75.75 44L-85.4 21L-85.4 20.95L-84.75 19.9Q-83.8 18 -83.6 14.75L-83.6 13.2Q-83.8 6.85 -86.8 -1L-86.9 -1.35L-88.45 -4.8Q-90.2 -8.6 -92.25 -11.45L-93.05 -12.6L-87.6 -22.35Q-88.1 -20.5 -88.15 -17.9L-88.1 -14.9L-87.9 -12.7Q-87.35 -8.55 -85.7 -3.8L-85.25 -2.5L-85 -1.85L-71.75 31.7Q-70.95 34.2 -69.5 35.9Q-68.2 37.3 -66.8 37.25Q-66.05 37.15 -65.7 36.35ZM-85.55 21.1L-88.1 28.95L-88.5 30.15Q-89.45 32.55 -91.45 32.9Q-94.7 32.6 -98.35 28.6L-99.5 27.25L-100.15 26.45L-102.05 31.6L-102 31.85L-102.55 32.85L-103 33.35Q-104.15 32.95 -104.75 31.95L-106.3 29.85L-106.65 29.15L-107.5 31.15L-107.2 32.25Q-107.5 33.25 -107.95 33.75L-108.5 33.65Q-110.4 33.2 -112.45 31.25L-112.6 30.85L-113.7 27.5L-125.1 -3.2L-122.05 -8.15L-124.85 -14.85Q-126.35 -17.8 -126 -18.7L-126.05 -19L-126.05 -19.8L-125.7 -20.35L-120.65 -27.7L-120.75 -26.45Q-120.8 -24.95 -119.85 -22.75L-103.75 19.85L-103.4 20.7L-103.25 21.05L-101.8 23.4Q-100.85 24.6 -99.8 24.6L-99.25 24.05L-98.95 23.15L-98.9 22.85Q-99.05 21.25 -99.55 19.5L-99.7 19L-110 -8.05L-109.85 -8.2L-105.95 -15.65Q-106.55 -14.1 -106.6 -11.65L-106.6 -10.4L-106.6 -8.8L-106.55 -7.35Q-106.15 -2.95 -104.2 2.35L-104.25 2.4L-104.2 2.4L-103.5 4.2Q-100.45 12.35 -95.75 17.8L-94.5 19.15Q-91.2 22.45 -88.2 22.4L-87.6 22.35Q-86.4 22.05 -85.55 21.1ZM-113 43.25L-112.65 45.1L-112.6 45.2Q-112.75 47.6 -113.5 48.6Q-113.95 49.15 -114.6 49.25L-114.75 49.25Q-115.85 48.65 -116.2 47.9Q-117.85 46.15 -118.2 44.8Q-119.3 42.1 -119.05 41.55L-119.2 40.8L-119.3 40.75L-119.3 40.35L-119.25 40.25L-119.2 40.15Q-118.55 38.3 -118.25 36.4L-118.8 34.45L-119.35 33.25L-120.75 34.35Q-122.4 34.1 -124 32.65L-125.85 30.55L-126.45 29.75L-127.45 33.4L-127.45 33.45L-127.5 33.65L-127.9 34.9Q-129.25 34.75 -130.6 33.7Q-132.05 32.5 -133.55 30.3L-133.85 29.85L-140.1 12.8Q-141.5 9 -143.05 6.3Q-143.3 4.6 -143.05 3.6L-142.85 3L-142.35 2.45L-141.6 2.2Q-141.55 1.45 -140.8 2.2L-140.8 2.45L-140.75 3.15L-140.4 6.5L-140.3 7.15Q-139.8 9.9 -138.7 13.15L-138.7 13.3L-138.65 13.3L-138.1 14.95Q-135.9 21.35 -132.5 25.85L-132.45 25.9Q-130.55 28.5 -128.9 29.4Q-127.85 29.95 -126.95 29.8L-126.6 29.55L-126.3 28.95L-126.3 28.75L-126.25 28.45Q-126.45 26.95 -127 25.25Q-127.8 23 -128.6 22Q-129.55 20.8 -130.1 21.05Q-130.65 21.1 -131.25 20.75L-131.3 20.6L-136.7 7.6Q-136.7 5.85 -135.75 5.65Q-135.25 5.3 -135.25 4.1L-135.25 4.05L-135.5 2.6L-135.9 1.05L-136 0.75L-136.9 -1.25L-135.45 -4.15Q-135.65 -3.75 -135.5 -2.9Q-135.55 -1.65 -134.7 0.4L-129.4 15.1Q-127.3 20.85 -124.4 24.65L-124.25 24.85Q-121.45 28.65 -119.05 28.3L-118.35 27.95L-117.55 26.9L-117 28.2Q-116.45 29.85 -116.25 31.4L-116.15 32.2L-116.25 33.05Q-116.5 33.95 -117.05 34.2L-117.1 34.2Q-117.9 34.1 -117.75 35.55Q-117.85 36.9 -117.05 39.05Q-116.35 41 -115.3 42.3Q-114.5 43.4 -113.65 43.45L-113.6 43.4L-113 43.25ZM-126.05 44.25L-126.5 46.85L-126.3 47.65L-126.75 48.85L-127 48.75Q-129 47.9 -131.25 44.9Q-134.45 40.55 -136.4 35.55L-143.7 17.7L-145.5 14.25L-145.7 14.05Q-146.3 12.3 -146.3 11.15Q-146.45 9.6 -145.7 9.45L-145.4 9.4Q-144.95 9.45 -144.25 10.4Q-143.35 11.6 -142.5 13.7L-141.25 17.15L-141.35 17.15L-140.65 18.85L-135.9 31.9L-135 34.35Q-133.4 38.35 -131.25 41.3Q-129 44.4 -127.2 44.75L-126.6 44.8L-126.55 44.8L-126.05 44.25ZM-139.95 31.35L-140.15 34.2L-140.1 34.35L-140.2 34.75L-140.3 35.2L-140.45 35.5L-140.85 35.3L-141.65 34.5Q-142.9 32.9 -143.05 31.75L-148.45 18.7L-149.9 15.2L-149.95 13.9Q-150.1 12.25 -150.6 10.5L-151.35 8.9Q-151.8 6.85 -151.5 5.9L-151.2 5.4L-149.8 3L-150.05 4.85L-150.05 5.05L-150 6.2Q-149.9 10.05 -147.9 15.45L-143.05 28.85L-141.75 31.6L-140.65 32.5L-140.4 32.5Q-140.1 32.25 -139.95 31.35ZM-149.7 22.85L-149.5 24.25Q-150.1 25 -149.75 25.4L-150.4 25.2L-151 24.4L-152.3 22.15L-152.35 21.95Q-153.45 19.8 -153.15 19.2L-153.75 15.05Q-154.5 14.35 -154.2 14.95L-154.35 14.95L-154.35 14.8Q-154.6 12.45 -153.75 12.35L-153.25 12.4L-152.95 16.75Q-153 18 -152.4 19.5L-151.05 22.15Q-150.45 23.1 -149.95 23.15L-149.7 22.85ZM-144.3 33.1L-143.85 34.65L-144.1 35.8L-144.15 36L-145.5 35.8Q-147.6 35.55 -149.95 32.05Q-153.05 27.5 -154.95 22.25Q-157.85 15.8 -158.1 12.15Q-159.25 7.85 -157.8 7.4L-157.75 10Q-157.55 14.35 -155.25 20.5Q-153.3 26.3 -150.6 30.25Q-148 34.05 -146.1 33.75L-144.65 33.45L-144.3 33.1ZM-132.45 -1.9L-129.05 -6.9L-129.15 -5.75Q-129.2 -4.35 -128.25 -2.15L-122.6 13.05Q-121.95 15 -121.75 16.65L-121.7 17.15Q-121.8 18.15 -122.15 18.75L-122.55 19.1Q-123.45 19.2 -124.5 17.95Q-125.7 16.4 -126.5 14.2L-132 -0.8L-132.1 -1.05L-132.45 -1.9ZM-22.5 -42.9L-27.85 -32L-32.8 -30.25L-39.15 -45.3Q-40.1 -47.65 -40.3 -49.8L-40.3 -52.1L-39.9 -53.95Q-39.3 -55.25 -37.95 -55.85Q-36.1 -57 -33.55 -55.2Q-32.1 -54.1 -30.8 -51.95L-29.55 -49.45L-29.15 -48.55Q-27.95 -45.55 -25.65 -44Q-24.1 -42.75 -22.5 -42.9ZM29 -48.05Q29 -49.3 29.5 -50.3Q29.6 -51.95 30.3 -52.95L35.65 -74Q35.75 -71.85 37.1 -69.2L51.3 -38.35Q53.15 -33.7 52.55 -30.05L52.2 -29.2Q51 -26.15 48.55 -25Q44.6 -24.6 41.2 -26.9Q37.3 -29.45 35.45 -33.7L29 -48L29 -48.05ZM-112.45 13.75L-113.75 11.9L-116.55 5.1Q-117.1 3.1 -117 1.45Q-117.15 -1.6 -115.75 -1.9L-115.5 -2.05Q-115.05 -2.55 -114.95 -3.65L-115.1 -4.9L-115.75 -7.4Q-116.75 -9.8 -117.65 -10.75Q-118.65 -12 -119.35 -11.5L-119.45 -11.45Q-120.3 -11.15 -120.8 -10.35L-121.35 -9.3L-121.8 -7.5L-121.9 -4.35L-121.85 -3Q-121.65 1.1 -120 6.2L-119 9.05Q-116.45 16.3 -112.4 21.25Q-110.25 23.9 -108.35 24.95Q-106.8 25.8 -105.4 25.5L-105.05 25.35Q-104.6 25 -104.5 24.15L-104.5 24.05L-104.5 23.9Q-104.65 22.2 -105.3 20.2Q-106.2 17.85 -107.2 16.65L-107.95 15.95Q-108.65 15.45 -109.1 15.65Q-110.6 15.8 -112.45 13.75ZM-100.8 -4.15L-100.8 -4.4Q-100.9 -7.5 -99.25 -8Q-97.8 -8.7 -95.35 -6.15L-93.95 -4.35Q-92.55 -2.3 -91.5 0.45Q-90.05 4.4 -90.05 7.75Q-90.1 8.65 -90.3 9.35Q-90.65 10.85 -91.6 11.3L-91.75 11.35Q-93.5 11.75 -95.7 9.3Q-98.1 6.65 -99.45 2.95Q-101 -1.15 -100.8 -4.15ZM-62.75 -41.95L-68.95 -30.25Q-69.1 -28 -70.4 -26.95L-70.65 -27L-72.15 -27.15Q-75.7 -29.1 -77.55 -33.85Q-78.65 -36.05 -78.55 -37.1L-81.45 -49.45Q-82.25 -52.55 -81.95 -54.25Q-81.7 -55.7 -80.7 -56.15L-80.25 -56.35L-80.45 -56.5L-72.7 -68.3Q-73.75 -66.5 -72.85 -62.65L-70.7 -51Q-70.6 -49.7 -69.65 -48.05Q-67.95 -43.1 -64.45 -41.95L-62.75 -41.95ZM-46.95 -5.8L-46.2 -6.35L-48.15 -1.25Q-49.4 -1.85 -50.65 -3L-50.95 -3.3Q-54.05 -6.3 -55.6 -10.7Q-57.65 -15.3 -57.45 -18.85L-57.4 -19.6L-57.2 -21.5Q-56.65 -24 -54.65 -24.45L-53.9 -24.65L-53.15 -24.6L-54.05 -16.65L-54.1 -15.65Q-54.1 -13.7 -53.2 -11.7Q-52.4 -9.6 -50.95 -7.9L-50.2 -7.1Q-48.45 -5.55 -46.95 -5.8Z" fill="#cccccc" fill-rule="evenodd"/>
  <path d="M48.75 -110.35L47.8 -109.85" fill="none" stroke="#9c6131" stroke-width="0.05" stroke-linecap="round" stroke-linejoin="round"/>

</g>
</svg>
